<svg xmlns="http://www.w3.org/2000/svg" viewBox="0 0 3000 3000"><defs><style>.cls-1{fill:#e85c58;}.cls-2{fill:#fff;}.cls-3{opacity:0.22;}.cls-4{opacity:0.26;}.cls-5{fill:#ba4d4d;}</style></defs><title>logo (2)</title><g id="Слой_2" data-name="Слой 2"><g id="logo"><polygon id="bg" class="cls-1" points="2352.35 0 0 0 0 3000 3000 3000 3000 647.65 2352.35 0"/><path id="border" class="cls-2" d="M2771.18,426.83V2772.15H227.85V228.82H2573.17q-52.7-52.68-105.38-105.38H122.46v2754.1h2754.1V532.21Z"/><path id="shadow" class="cls-3" d="M1510.54,2469.29,2206,1561,1510.54,519.91,3000,1011.71V3000Z"/><path id="b" class="cls-2" d="M1510.54,523,1183.93,711.54q0-256.27.07-512.54H667l.45,1784.25L1510.54,2470l843.09-486.76V1009.73Zm319.12,1157.4L1508.5,1865.79l-321.15-185.42V1309.54l321.15-185.42,321.16,185.42Z"/><path id="shadow2" class="cls-4" d="M3000,646.37l-597.19,42.15Q2378.23,344.27,2353.63,0Z"/><polygon id="corner" class="cls-5" points="3000 644.21 2355.79 644.21 2355.79 0 3000 644.21"/></g></g></svg>